<svg width="16" height="16" viewBox="0 0 16 16" fill="none" xmlns="http://www.w3.org/2000/svg">
<path d="M12.6132 1.74251L12.6132 1.74252L12.6106 1.73641C12.5119 1.49949 12.2778 1.33333 11.9993 1.33333H5.99935C5.82254 1.33333 5.65297 1.40357 5.52794 1.5286C5.40292 1.65362 5.33268 1.82319 5.33268 2V8.66667C5.33268 8.8503 5.40464 9.01581 5.53075 9.14193L9.44824 13.0594L9.68128 12.8286C9.68154 12.8283 9.6818 12.8281 9.68207 12.8278C9.74207 12.7674 9.77935 12.6819 9.77935 12.5933C9.77935 12.5597 9.77625 12.5315 9.7727 12.5128L9.30242 10.2741C9.12837 9.44553 9.76062 8.66667 10.6073 8.66667H13.9993C14.1762 8.66667 14.3457 8.59643 14.4708 8.47141C14.5958 8.34638 14.666 8.17681 14.666 8V6.66667C14.666 6.5855 14.6516 6.51015 14.6218 6.43135L12.6132 1.74251ZM2.66602 1.33333H1.33268L1.33268 8H2.66602V1.33333L2.66602 0.666668V1.33333Z" stroke="#949494" stroke-width="1.33333"/>
</svg>
